# xmcd
# 
# Track frame offsets:
#     150
#     24754
#     47005
#     71610
#     93861
# 
# Disc length: 1377
# 
# Revision: 1
# Processed by: cddbd v1.5.2PL0 Copyright (c) Steve Scherf et al.
# Submitted via: BonkEnc v1.0.6
# 
DISCID=31055f05
DTITLE=SunMin - Will
DYEAR=2008
DGENRE=J-Pop
TTITLE0=Will
TTITLE1=I Have Nothing
TTITLE2=Will - back track - 
TTITLE3=I Have Nothing - back track - 
TTITLE4=Ichi No Komoriuta
EXTD=
EXTT0=
EXTT1=
EXTT2=
EXTT3=
EXTT4=
PLAYORDER=
